# xmcd
#
# Track frame offsets:
#	150
#	14870
#	40099
#	54399
#	64137
#	90052
#	122264
#	141197
#	156637
#	177977
#	190812
#
# Disc length: 2988 seconds
#
# Revision: 0
# Processed by: cddbd v1.5.2PL0 Copyright (c) Steve Scherf et al.
# Submitted via: audiograbber 1.83.01
#
DISCID=900baa0b
DTITLE=Smokin' Joe Kubek Band featuring B'nois King - Texas Cadillac
DYEAR=1994
DGENRE=Blues
TTITLE0=Mellow Down Easy
TTITLE1=Still A Fool
TTITLE2=Seems Like A Million Years
TTITLE3=Show You What They See
TTITLE4=TV Light
TTITLE5=Mean Old World
TTITLE6=Texas Cadillac
TTITLE7=Where Can You Be
TTITLE8=Little Red Rooster
TTITLE9=No Time
TTITLE10=Must Have Missed A Turn Somewhere
EXTD=
EXTT0=
EXTT1=
EXTT2=
EXTT3=
EXTT4=
EXTT5=
EXTT6=
EXTT7=
EXTT8=
EXTT9=
EXTT10=
PLAYORDER=
